<svg width="38" height="38" viewBox="0 0 38 38" fill="none" xmlns="http://www.w3.org/2000/svg">
<path d="M20.5833 3.16663H21.0151C26.1786 3.16663 28.7604 3.16663 30.5534 4.42986C31.0671 4.7918 31.5232 5.22104 31.9077 5.70453C33.2499 7.39202 33.2499 9.82194 33.2499 14.6818V18.7121C33.2499 23.4038 33.2499 25.7496 32.5074 27.6232C31.3138 30.6352 28.7895 33.0111 25.5892 34.1345C23.5985 34.8333 21.1061 34.8333 16.1211 34.8333C13.2726 34.8333 11.8483 34.8333 10.7108 34.434C8.88209 33.792 7.43961 32.4344 6.75753 30.7132C6.33325 29.6426 6.33325 28.3021 6.33325 25.6212V19" stroke="#3276E8" stroke-width="2" stroke-linecap="round" stroke-linejoin="round"/>
<path d="M33.2501 19C33.2501 21.9148 30.8871 24.2777 27.9723 24.2777C26.9181 24.2777 25.6754 24.093 24.6504 24.3677C23.7398 24.6117 23.0285 25.323 22.7844 26.2336C22.5098 27.2586 22.6945 28.5014 22.6945 29.5555C22.6945 32.4704 20.3316 34.8333 17.4167 34.8333" stroke="#3276E8" stroke-width="2" stroke-linecap="round" stroke-linejoin="round"/>
<path d="M17.4167 9.49999L4.75 9.49999M11.0833 3.16666V15.8333" stroke="#3276E8" stroke-width="2" stroke-linecap="round"/>
</svg>
